<svg xmlns="http://www.w3.org/2000/svg" viewBox="0 0 100 100" fill="none">
  <defs>
    <linearGradient id="gold-grad" x1="0" y1="0" x2="1" y2="1">
      <stop offset="0%" stopColor="#f4d37a" />
      <stop offset="60%" stopColor="#d6a83a" />
      <stop offset="100%" stopColor="#8d681c" />
    </linearGradient>
    <linearGradient id="silver-grad" x1="0" y1="1" x2="1" y2="0">
      <stop offset="0%" stopColor="#ffffff" stopOpacity="0.9" />
      <stop offset="100%" stopColor="#f4d37a" stopOpacity="0.2" />
    </linearGradient>
    <filter id="glow" x="-25%" y="-25%" width="150%" height="150%">
      <feGaussianBlur stdDeviation="3" result="blur" />
      <feComposite in="SourceGraphic" in2="blur" operator="over" />
    </filter>
  </defs>
  
  <rect width="100" height="100" rx="22" fill="#000000" />
  <circle cx="50" cy="50" r="44" stroke="url(#gold-grad)" strokeWidth="1" strokeDasharray="3 6" opacity="0.35" />
  <path d="M 50 6 A 44 44 0 0 1 94 50" stroke="url(#gold-grad)" strokeWidth="1.5" strokeLinecap="round" opacity="0.7" />
  <path d="M 50 94 A 44 44 0 0 1 6 50" stroke="url(#gold-grad)" strokeWidth="1.5" strokeLinecap="round" opacity="0.7" />
  
  <path d="M 46 54 L 16 38 C 28 66 46 72 46 72 Z" fill="url(#gold-grad)" opacity="0.85" />
  <path d="M 54 54 L 84 38 C 72 66 54 72 54 72 Z" fill="url(#gold-grad)" opacity="0.95" />
  <path d="M 50 18 L 64 58 L 50 50 L 36 58 Z" fill="url(#silver-grad)" filter="url(#glow)" />
  <circle cx="50" cy="18" r="3" fill="#ffffff" filter="url(#glow)" />
  <line x1="50" y1="50" x2="50" y2="72" stroke="url(#gold-grad)" strokeWidth="2" strokeDasharray="2 2" opacity="0.8" />
  <circle cx="50" cy="72" r="4" fill="url(#gold-grad)" filter="url(#glow)" />
</svg>
